PathFileType	4	(X/Y/Z)	 s02c0301.trc
DataRate	CameraRate	NumFrames	NumMarkers	Units	OrigDataRate	OrigDataStartFrame	OrigNumFrames
200	200	4	51	mm	200	1501	2000
Frame#	Time	racr			lacr			c7			jug			rlel			rdr			llel			ldr			s2			lic			ric			lasi			rasi			rpsi			lpsi			rgt			lgt			rth1			rth2			rth3			rth4			rlfc			rmfc			rsh1			rsh2			rsh3			rsh4			rlmal			rmmal			rcal			rtoe			rmt5			rmt1			lth1			lth2			lth4			lth3			llfc			lmfc			lsh1			lsh2			lsh3			lsh4			llmal			lmmal			lcal			ltoe			lmt5			SBIKE			LBIKE			RBIKE			
		X1	Y1	Z1	X2	Y2	Z2	X3	Y3	Z3	X4	Y4	Z4	X5	Y5	Z5	X6	Y6	Z6	X7	Y7	Z7	X8	Y8	Z8	X9	Y9	Z9	X10	Y10	Z10	X11	Y11	Z11	X12	Y12	Z12	X13	Y13	Z13	X14	Y14	Z14	X15	Y15	Z15	X16	Y16	Z16	X17	Y17	Z17	X18	Y18	Z18	X19	Y19	Z19	X20	Y20	Z20	X21	Y21	Z21	X22	Y22	Z22	X23	Y23	Z23	X24	Y24	Z24	X25	Y25	Z25	X26	Y26	Z26	X27	Y27	Z27	X28	Y28	Z28	X29	Y29	Z29	X30	Y30	Z30	X31	Y31	Z31	X32	Y32	Z32	X33	Y33	Z33	X34	Y34	Z34	X35	Y35	Z35	X36	Y36	Z36	X37	Y37	Z37	X38	Y38	Z38	X39	Y39	Z39	X40	Y40	Z40	X41	Y41	Z41	X42	Y42	Z42	X43	Y43	Z43	X44	Y44	Z44	X45	Y45	Z45	X46	Y46	Z46	X47	Y47	Z47	X48	Y48	Z48	X49	Y49	Z49	X50	Y50	Z50	X51	Y51	Z51	
1501	7.5050	761.778577	1226.545184	-190.903755	717.035697	1207.401092	-526.887436	740.935868	1260.544993	-365.381156	NaN	NaN	NaN	667.521508	1022.722261	-35.603865	736.767642	844.072997	-110.142408	540.846689	987.886149	-598.544581	708.363833	863.614940	-520.818127	207.919326	1197.115295	-264.705066	304.872220	1187.573486	-430.520295	356.065061	1184.110353	-145.787737	348.145364	1147.421084	-410.861169	392.372902	1137.951707	-177.050621	255.538181	1249.140326	-223.435000	246.236732	1261.916674	-309.474014	315.433526	1087.142536	-107.926958	247.491787	1111.858097	-454.751578	373.446718	1002.324277	-116.149428	426.453224	931.327643	-122.240739	442.998983	848.433353	-104.491195	452.815273	940.675349	-148.555965	453.047415	707.016610	-134.939825	432.657819	694.040867	-241.404362	387.069041	616.159830	-114.527294	341.763388	539.946173	-130.334357	268.816289	493.985361	-122.367879	350.676133	533.732089	-168.540706	172.105620	407.838028	-124.528817	193.704687	424.536383	-205.786923	95.969285	440.322096	-169.967483	234.751293	190.093053	-194.425719	167.393817	269.776970	-126.420139	189.900928	262.251506	-235.492378	357.762599	1027.633433	-489.693375	432.879261	985.079993	-500.322422	458.530285	1008.845118	-487.867704	475.849326	908.196484	-511.518991	547.408176	829.182831	-501.467454	570.060912	800.522200	-398.393551	513.804144	726.729635	-513.498279	496.163680	644.707319	-491.104984	436.143832	577.894808	-484.066253	518.936149	640.481666	-457.572517	371.053298	495.581926	-460.699042	396.811054	490.026548	-385.892049	298.965278	459.215770	-417.437120	573.315006	374.884283	-446.922477	460.298259	382.130770	-500.792104	-125.841477	873.320273	-308.750889	37.458737	86.517097	-514.256067	34.002894	83.213935	-114.098514	
1502	7.5100	760.807254	1229.951526	-189.560933	717.869255	1205.966102	-525.346219	740.499023	1261.487858	-364.123339	NaN	NaN	NaN	667.856791	1023.501078	-35.756213	736.867296	844.166888	-109.959312	539.764260	987.827872	-597.054155	708.175687	864.059525	-520.867984	206.123535	1196.145954	-265.852375	305.143451	1184.805623	-431.931056	354.349166	1185.509920	-146.926794	348.000174	1145.016168	-411.078996	391.143953	1139.348429	-177.512684	253.672913	1250.008867	-225.820783	245.110711	1261.294663	-312.029366	315.961910	1088.170632	-108.344326	245.833219	1108.765060	-455.239258	375.933016	1004.762188	-117.654502	430.234588	934.759725	-124.327158	448.728585	852.284173	-106.683012	455.923982	944.645987	-151.153365	460.326046	710.715135	-136.481822	438.265452	697.937228	-242.493308	392.854860	620.134025	-115.960286	344.639492	544.921993	-132.195074	271.865557	500.637205	-122.965455	354.296537	538.644576	-169.689291	173.268990	417.118498	-124.648071	194.670446	433.277972	-206.113305	97.402261	451.414016	-170.149595	230.818817	197.846358	-194.433042	165.455041	279.304569	-126.569269	187.705286	271.250483	-235.498650	354.928734	1023.168770	-490.543027	429.258301	979.341401	-501.369088	455.418603	1002.927475	-489.484802	470.718515	901.651986	-512.510181	541.336050	821.712688	-501.499017	565.853121	793.157934	-399.340430	508.421561	718.703310	-513.457462	493.236374	636.273885	-491.722323	434.869296	567.942800	-483.710112	516.764991	632.239888	-458.493837	372.380088	484.589009	-460.438985	398.550925	479.166583	-385.686796	301.148472	447.845728	-416.746422	575.834894	364.897196	-447.644273	462.486340	371.579932	-500.841684	-125.839277	873.342194	-308.508924	37.449238	86.548908	-514.229753	34.016150	83.201834	-114.080820	
1503	7.5150	759.632125	1233.361516	-188.074708	718.839536	1204.443594	-523.725296	740.067659	1262.324184	-362.650379	NaN	NaN	NaN	667.972699	1024.081512	-35.919745	736.968492	844.276569	-109.675054	539.071650	987.622795	-595.843982	708.076206	864.402523	-520.906707	204.931554	1194.753049	-267.071932	305.504258	1182.048009	-433.160775	352.530264	1186.679305	-148.168864	348.069962	1142.386872	-411.343587	389.840176	1140.431718	-177.919280	250.580550	1250.792315	-227.893176	244.487549	1260.693571	-315.287093	316.575855	1089.105639	-108.869524	244.367845	1105.560899	-455.771135	378.243501	1007.079512	-119.265435	433.437820	938.167045	-126.234202	453.843790	856.198877	-108.753304	458.542064	948.368670	-153.597776	467.336249	714.373849	-137.396108	443.580544	701.594628	-243.393994	398.510961	624.036736	-117.417882	348.616091	549.937288	-133.276479	275.014204	507.144377	-123.685355	357.613600	543.289701	-171.316088	174.591899	426.604405	-124.831792	196.838343	442.170959	-206.667457	99.064186	462.535672	-170.256437	227.652600	206.177026	-194.379071	164.069319	289.145582	-126.751607	186.112354	280.515339	-235.560894	352.282516	1018.499670	-491.299028	425.939054	973.447882	-502.051380	452.523268	996.797310	-490.831700	466.395253	895.054231	-512.121511	535.491323	814.372776	-501.291972	561.670199	785.950156	-399.855528	503.310964	711.177847	-513.739149	490.243327	628.206210	-492.468468	433.339674	558.757500	-483.988213	514.566627	624.380242	-459.928130	373.663833	473.584725	-460.520644	399.929714	468.446992	-385.724055	302.875770	436.727998	-416.815414	577.921477	354.478666	-447.656569	464.463948	360.793120	-500.876891	-125.864017	873.346874	-308.428916	37.462128	86.568153	-514.226203	34.019988	83.223835	-114.079800	
1504	7.5200	758.328339	1236.543036	-186.459527	719.993024	1202.859986	-522.023265	739.716244	1263.143228	-361.018404	NaN	NaN	NaN	667.944418	1024.634349	-36.096679	737.052745	844.332283	-109.307470	538.755929	987.435715	-594.937742	708.048776	864.664268	-520.946941	204.127032	1193.569932	-268.778613	306.069138	1179.170556	-434.752861	350.538507	1187.459454	-149.557504	348.309510	1139.727045	-411.869178	388.250891	1141.135971	-178.262003	248.596011	1250.794667	-230.545231	243.286840	1259.551510	-317.929731	316.739079	1089.734362	-109.736452	243.192494	1102.222077	-456.386123	379.939850	1009.400606	-120.486208	436.394069	941.186844	-127.860283	458.184350	859.717927	-110.446092	460.574563	951.845996	-155.946072	474.030835	717.873103	-138.317541	448.784677	705.015560	-244.335065	404.020609	627.841673	-119.470696	352.535426	554.971952	-134.453372	278.060125	513.750501	-124.503371	361.147691	548.180798	-172.462187	175.944407	436.300731	-125.041937	197.856588	451.577595	-206.642329	100.830393	473.637748	-170.350399	225.219585	215.106053	-194.388534	163.111204	299.143594	-126.838847	185.074745	290.086534	-235.564300	349.981268	1013.768229	-491.995663	422.788007	967.323087	-502.549333	449.816519	990.492929	-491.893146	462.066184	888.340678	-511.761723	529.767361	807.171722	-500.861054	558.293043	779.391604	-399.943538	498.444778	704.061788	-514.189821	487.248415	620.517213	-493.393885	431.581604	550.188116	-484.501493	512.300689	616.597842	-461.342992	374.650115	462.792377	-461.171314	400.917190	457.843597	-385.972358	304.391360	426.391062	-417.991713	579.452850	343.618953	-447.174421	466.150403	350.055446	-500.889813	-125.872086	873.338866	-308.388328	37.478598	86.605557	-514.206604	34.016588	83.244384	-114.087625	
